<?xml version="1.0" standalone="no"?>
<!DOCTYPE svg PUBLIC "-//W3C//DTD SVG 20010904//EN"
 "http://www.w3.org/TR/2001/REC-SVG-20010904/DTD/svg10.dtd">
<svg version="1.0" xmlns="http://www.w3.org/2000/svg"
 width="50" height="45" viewBox="0 0 50 45"
 preserveAspectRatio="xMidYMid meet">

<g transform="translate(0, 45) scale(0.1,-.1)"
fill="#2BE080" stroke="none">
<path d="M209 311 c-35 -31 -41 -42 -32 -52 9 -9 17 -8 37 5 l26 16 0 -90 c0
-73 3 -90 15 -90 12 0 15 17 15 90 0 50 4 90 8 90 5 0 17 -9 27 -20 14 -16 21
-17 32 -8 12 9 7 19 -29 55 -23 23 -45 43 -49 43 -3 0 -26 -18 -50 -39z m96
-11 c40 -41 30 -57 -12 -19 -29 28 -32 20 -36 -91 l-3 -85 -2 98 c-1 53 -6 97
-10 97 -5 0 -17 -9 -27 -20 -10 -11 -23 -20 -29 -20 -5 0 8 18 29 40 21 22 42
40 45 40 3 0 24 -18 45 -40z"/>
</g>
</svg>
